<svg xmlns="http://www.w3.org/2000/svg" viewBox="0 0 720 400"><defs><linearGradient id="bg" x2="1" y2="1"><stop stop-color="#263744"/><stop offset=".55" stop-color="#19252e"/><stop offset="1" stop-color="#10191e"/></linearGradient><linearGradient id="plate" x2="1" y2="1"><stop stop-color="#8fb8c7"/><stop offset=".28" stop-color="#344c55"/><stop offset=".75" stop-color="#172630"/><stop offset="1" stop-color="#5b7c88"/></linearGradient></defs><path fill="url(#bg)" d="M0 0h720v400H0z"/><g stroke="#9cc5d2" opacity=".11"><path d="M-40 390 470-40M80 440 590-40M200 440 710-40M320 440 830-40" stroke-width="2"/></g><path d="m336 24 156 40 85 109-34 166-166 44-170-55-54-141 82-130z" fill="url(#plate)" stroke="#9ac7d2" stroke-width="3"/><path d="m336 24 41 158 200-9M377 182l-170 146M377 182v201M377 182l-142-125M377 182l166 157" stroke="#afcfda" stroke-width="3" opacity=".47"/><path d="m336 54 101 25 83 97-23 122-118 40-122-39-42-105 50-111z" fill="none" stroke="#e0f5f5" opacity=".2" stroke-width="2"/><circle cx="377" cy="182" r="31" fill="#a7cad3" opacity=".43"/><circle cx="377" cy="182" r="14" fill="#d4eef0"/></svg>
