<svg xmlns="http://www.w3.org/2000/svg" viewBox="0 0 720 400"><defs><linearGradient id="bg" x2="1" y2="1"><stop stop-color="#4a6b7d"/><stop offset=".5" stop-color="#2c4855"/><stop offset="1" stop-color="#1d3743"/></linearGradient><linearGradient id="plate" x2="1" y2="1"><stop stop-color="#bfe6f0"/><stop offset=".28" stop-color="#5c8593"/><stop offset=".75" stop-color="#2b4954"/><stop offset="1" stop-color="#84b0bd"/></linearGradient><linearGradient id="plate2" x2="0" y2="1"><stop stop-color="#7fc4d6"/><stop offset="1" stop-color="#2c4855"/></linearGradient></defs><path fill="url(#bg)" d="M0 0h720v400H0z"/><g stroke="#c3e3ec" opacity=".35"><path d="M-40 390 470-40M80 440 590-40M200 440 710-40M320 440 830-40" stroke-width="2.5"/></g><g fill="none" stroke="#bfe6f0" opacity=".45"><path d="M0 60h720M0 130h720M0 340h720"/></g><path d="m336 24 156 40 85 109-34 166-166 44-170-55-54-141 82-130z" fill="url(#plate)" stroke="#d9f3f8" stroke-width="3.5"/><path d="m336 24 41 158 200-9M377 182l-170 146M377 182v201M377 182l-142-125M377 182l166 157" stroke="#e3f6f9" stroke-width="3" opacity=".7"/><path d="m336 54 101 25 83 97-23 122-118 40-122-39-42-105 50-111z" fill="url(#plate2)" opacity=".55" stroke="#eafcff" stroke-width="2"/><circle cx="377" cy="182" r="34" fill="#c9e9ef" opacity=".85"/><circle cx="377" cy="182" r="16" fill="#f2fcfd"/><g fill="#eafcff"><circle cx="120" cy="90" r="3" opacity=".9"/><circle cx="610" cy="330" r="3" opacity=".8"/><circle cx="80" cy="330" r="2.4" opacity=".7"/><circle cx="640" cy="80" r="2.4" opacity=".8"/></g><path d="M40 340 90 300 40 260M680 60 630 100 680 140" stroke="#bfe6f0" stroke-width="3" fill="none" opacity=".75" stroke-linecap="round" stroke-linejoin="round"/></svg>
